#!OML:ASF H:\Terrain\Patient Classification 1\Walking\liu\liu.ASF
:FULLY-SPECIFIED
:DEGREES
1
root 7.465930 15.993700 -36.732101 7.113560 1.314870 -3.667760
lowerback -2.149560 0.094702 0.469700
upperback -0.759430 0.092594 1.278510
thorax 0.422545 0.048016 1.053525
lowerneck -9.328950 -2.587070 -6.668800
upperneck 6.839850 -3.315535 8.461800
head 4.194970 -1.140960 3.585140
rclavicle 0.000000 0.000000
rhumerus -19.384399 8.727550 -42.051552
rradius 28.099449
rwrist -14.284800
rhand -16.600750 -12.875650
rfingers 3.562510
rthumb -3.204350 -27.817200
lclavicle 0.000000 0.000000
lhumerus -17.963350 -1.489275 43.127201
lradius 13.702800
lwrist 3.652785
lhand -6.650150 -11.510550
lfingers 3.562510
lthumb 6.401900 3.283120
rfemur -4.949005 2.363295 15.054950
rtibia 12.059900
rfoot 0.000000 0.000000
rtoes 0.000000
lfemur -20.344851 3.211290 -8.175800
ltibia 21.955299
lfoot -7.309300 4.173335
ltoes -5.924350
2
root 7.469790 15.990900 -36.609901 6.973640 1.176770 -3.427690
lowerback -2.014735 0.062358 0.343309
upperback -0.871705 0.061233 1.204705
thorax 0.232915 0.033172 1.046175
lowerneck -9.154600 -2.473560 -6.433000
upperneck 6.990400 -3.227540 8.299050
head 4.183155 -1.106575 3.501130
rclavicle 0.000000 0.000000
rhumerus -19.648100 8.731050 -42.244801
rradius 28.458851
rwrist -14.891800
rhand -16.254450 -13.352100
rfingers 3.562510
rthumb -2.870050 -28.303200
lclavicle 0.000000 0.000000
lhumerus -18.306749 -1.528040 43.100800
lradius 13.802500
lwrist 3.687950
lhand -6.626350 -11.838900
lfingers 3.562510
lthumb 6.424800 2.953360
rfemur -4.552615 2.496655 14.943350
rtibia 11.896450
rfoot 0.000000 0.000000
rtoes 0.000000
lfemur -20.315701 2.982445 -8.209300
ltibia 20.882549
lfoot -7.219800 3.897310
ltoes -5.825700
3
root 7.468650 15.981700 -36.492199 7.074960 1.020620 -3.421040
lowerback -2.126340 0.104245 0.267069
upperback -0.883915 0.117840 1.217770
thorax 0.280522 0.061777 1.105565
lowerneck -9.242900 -2.462195 -6.290200
upperneck 7.228150 -3.253760 8.215500
head 4.273610 -1.111395 3.450175
rclavicle -0.000000 0.000000
rhumerus -19.682949 8.676600 -42.230148
rradius 28.812500
rwrist -15.576000
rhand -15.731250 -13.636950
rfingers 3.562510
rthumb -2.364860 -28.600550
lclavicle -0.000000 0.000000
lhumerus -18.279249 -1.529755 43.175350
lradius 13.693900
lwrist 3.521590
lhand -6.426300 -11.945400
lfingers 3.562510
lthumb 6.617650 2.834520
rfemur -4.216525 2.679050 14.962300
rtibia 11.632000
rfoot 0.000000 0.000000
rtoes 0.000000
lfemur -20.488951 2.825615 -8.114600
ltibia 19.952801
lfoot -7.213300 3.610590
ltoes -5.539700
4
root 7.474180 15.976900 -36.368900 7.146040 0.803247 -3.687080
lowerback -2.307745 0.236733 0.410141
upperback -0.852085 0.282946 1.291135
thorax 0.409294 0.143714 1.110560
lowerneck -8.941000 -2.625840 -6.787500
upperneck 6.943750 -3.384090 8.402200
head 4.172110 -1.200910 3.577690
rclavicle 0.000000 0.000000
rhumerus -19.680849 8.597350 -42.064651
rradius 29.045300
rwrist -16.098600
rhand -15.757750 -13.801300
rfingers 3.562510
rthumb -2.390450 -28.764299
lclavicle 0.000000 0.000000
lhumerus -18.249350 -1.893695 43.572350
lradius 13.750000
lwrist 3.635735
lhand -5.952950 -11.719450
lfingers 3.562510
lthumb 7.073850 3.029715
rfemur -3.868480 2.710045 15.105300
rtibia 11.375050
rfoot 0.000000 0.000000
rtoes 0.000000
lfemur -20.598301 2.789030 -7.933250
ltibia 18.968300
lfoot -6.931150 3.642460
ltoes -5.510600
5
root 7.487920 15.976100 -36.236801 7.032030 0.509124 -3.741260
lowerback -2.397550 0.225507 0.441895
upperback -0.759145 0.261208 1.322125
thorax 0.555560 0.132180 1.125120
lowerneck -9.029700 -2.543800 -6.934700
upperneck 6.923750 -3.258765 8.617600
head 4.174735 -1.127230 3.700430
rclavicle 0.000000 0.000000
rhumerus -19.557650 8.846550 -42.129150
rradius 29.253250
rwrist -16.543100
rhand -15.796750 -14.395850
rfingers 3.562510
rthumb -2.428090 -29.358049
lclavicle 0.000000 0.000000
lhumerus -18.309401 -2.142535 43.842350
lradius 13.997450
lwrist 3.940600
lhand -5.884250 -11.294850
lfingers 3.562510
lthumb 7.140050 3.449665
rfemur -3.384695 2.698880 15.115500
rtibia 11.064350
rfoot 0.000000 0.000000
rtoes 0.000000
lfemur -20.544250 2.624085 -7.810250
ltibia 18.002050
lfoot -6.755850 3.795160
ltoes -5.361050
6
root 7.500650 15.977800 -36.101898 6.909560 0.143317 -3.598320
lowerback -2.431300 0.203008 0.391635
upperback -0.714790 0.232156 1.273290
thorax 0.620940 0.117242 1.102015
lowerneck -9.119000 -2.451410 -6.781500
upperneck 6.990550 -3.154580 8.547100
head 4.186515 -1.071095 3.664440
rclavicle 0.000000 -0.000000
rhumerus -19.552099 9.009550 -42.340500
rradius 29.487249
rwrist -16.914499
rhand -15.584350 -14.638000
rfingers 3.562510
rthumb -2.223040 -29.604700
lclavicle 0.000000 -0.000000
lhumerus -18.368151 -2.164860 43.863049
lradius 13.995900
lwrist 3.758965
lhand -6.012850 -11.437300
lfingers 3.562510
lthumb 7.016100 3.315855
rfemur -2.868325 2.702825 15.015950
rtibia 10.722200
rfoot 0.000000 0.000000
rtoes 0.000000
lfemur -20.442200 2.377170 -7.707200
ltibia 17.048901
lfoot -6.988700 3.908190
ltoes -5.300400
7
root 7.506240 15.988500 -35.973499 6.868540 -0.176380 -3.570520
lowerback -2.408265 0.168420 0.339073
upperback -0.728555 0.190025 1.229155
thorax 0.595280 0.096181 1.083320
lowerneck -9.176800 -2.400325 -6.430950
upperneck 7.061150 -3.134605 8.312050
head 4.195475 -1.059735 3.521135
rclavicle 0.000000 -0.000000
rhumerus -19.614250 9.144000 -42.620098
rradius 29.678150
rwrist -17.131300
rhand -15.603950 -14.691600
rfingers 3.562510
rthumb -2.241960 -29.657900
lclavicle 0.000000 -0.000000
lhumerus -18.469650 -2.125310 43.762451
lradius 13.986250
lwrist 3.503240
lhand -5.877200 -11.709050
lfingers 3.562510
lthumb 7.146850 3.034950
rfemur -2.421310 2.806310 14.991550
rtibia 10.411050
rfoot 0.000000 0.000000
rtoes 0.000000
lfemur -20.376200 2.177235 -7.534500
ltibia 16.071650
lfoot -7.056050 4.042395
ltoes -6.134350
8
root 7.507640 15.985700 -35.845901 6.916550 -0.470328 -3.664150
lowerback -2.435600 0.173178 0.307765
upperback -0.749860 0.197714 1.231350
thorax 0.588170 0.100093 1.103760
lowerneck -9.425350 -2.410255 -6.228850
upperneck 7.370450 -3.194740 8.205350
head 4.341790 -1.071630 3.449615
rclavicle 0.000000 -0.000000
rhumerus -19.687201 9.188150 -42.798599
rradius 29.869101
rwrist -17.233950
rhand -15.857600 -15.354750
rfingers 3.562510
rthumb -2.486850 -30.315550
lclavicle 0.000000 -0.000000
lhumerus -18.741400 -2.502550 43.916649
lradius 14.318750
lwrist 3.769920
lhand -5.689850 -11.440950
lfingers 3.562510
lthumb 7.327350 3.290095
rfemur -2.001180 3.034570 15.051050
rtibia 10.042000
rfoot -10.572900 -1.746380
rtoes -4.842570
lfemur -20.371700 1.994145 -7.288700
ltibia 15.148700
lfoot -6.890250 4.100390
ltoes -6.317350
9
root 7.512880 15.967200 -35.713200 6.960610 -0.816342 -3.753460
lowerback -2.611145 0.226156 0.342543
upperback -0.680630 0.261414 1.204730
thorax 0.755690 0.131217 1.062905
lowerneck -9.749600 -2.489240 -6.028450
upperneck 7.666150 -3.316440 7.970050
head 4.502190 -1.121565 3.321165
rclavicle 0.000000 0.000000
rhumerus -19.645500 9.104000 -42.917900
rradius 30.059000
rwrist -17.315001
rhand -15.823500 -15.778850
rfingers 3.562510
rthumb -2.453935 -30.740450
lclavicle 0.000000 0.000000
lhumerus -18.835400 -2.989765 44.073601
lradius 14.502550
lwrist 3.984065
lhand -5.337000 -11.243800
lfingers 3.562510
lthumb 7.667300 3.461915
rfemur -1.557200 3.151835 15.095100
rtibia 9.615950
rfoot -10.543500 -1.649680
rtoes -4.459565
lfemur -20.365700 1.773050 -7.004550
ltibia 14.312850
lfoot -6.852800 4.185810
ltoes -6.248800
10
root 7.523710 15.965100 -35.577000 7.011740 -1.212660 -4.061600
lowerback -2.785185 0.262047 0.502200
upperback -0.625850 0.293983 1.241110
thorax 0.909365 0.147455 1.015425
lowerneck -9.846000 -2.515305 -5.869050
upperneck 7.711300 -3.337055 7.697750
head 4.520060 -1.143525 3.191255
rclavicle 0.000000 0.000000
rhumerus -19.652349 9.169050 -43.042252
rradius 30.255751
rwrist -17.382851
rhand -15.451250 -15.006100
rfingers 3.562510
rthumb -2.094515 -29.975349
lclavicle 0.000000 0.000000
lhumerus -18.769951 -3.015940 44.097698
lradius 14.319150
lwrist 3.721080
lhand -4.919100 -11.656150
lfingers 3.562510
lthumb 8.069750 3.017845
rfemur -1.086990 3.131765 15.219050
rtibia 9.171000
rfoot -10.458200 -1.425555
rtoes -4.425930
lfemur -20.345600 1.542035 -6.572300
ltibia 13.538600
lfoot -6.865500 4.466670
ltoes -6.537700
11
root 7.534380 15.968800 -35.442200 7.082810 -1.629890 -4.216410
lowerback -2.813590 0.291017 0.539800
upperback -0.680145 0.330050 1.290415
thorax 0.868195 0.165712 1.047595
lowerneck -9.805200 -2.469415 -5.727950
upperneck 7.727800 -3.281670 7.518400
head 4.496805 -1.127990 3.109485
rclavicle -0.000000 0.000000
rhumerus -19.830099 9.277500 -43.197701
rradius 30.438850
rwrist -17.442801
rhand -15.209300 -14.447050
rfingers 3.562510
rthumb -1.860870 -29.420650
lclavicle -0.000000 0.000000
lhumerus -19.026699 -3.142480 44.273048
lradius 14.427650
lwrist 3.625440
lhand -4.942775 -11.934350
lfingers 3.562510
lthumb 8.046950 2.741475
rfemur -0.573030 3.117675 15.254000
rtibia 8.627100
rfoot -10.349950 -1.313925
rtoes -4.858885
lfemur -20.352850 1.301105 -6.223550
ltibia 12.856000
lfoot -6.952900 4.819225
ltoes -6.337900
12
root 7.547570 15.960400 -35.309601 7.011430 -2.006710 -4.203420
lowerback -2.801360 0.331486 0.504980
upperback -0.673245 0.385778 1.304790
thorax 0.866220 0.193386 1.085795
lowerneck -9.755550 -2.454400 -5.515300
upperneck 7.672950 -3.265170 7.256000
head 4.448075 -1.135705 2.977455
rclavicle -0.000000 0.000000
rhumerus -19.943600 9.331150 -43.312351
rradius 30.599251
rwrist -17.479650
rhand -15.396400 -14.795150
rfingers 3.562510
rthumb -2.041505 -29.765450
lclavicle -0.000000 0.000000
lhumerus -19.345751 -3.427420 44.492149
lradius 14.765350
lwrist 3.706325
lhand -4.689920 -11.480450
lfingers 3.562510
lthumb 8.290400 3.175400
rfemur 0.026564 3.102620 15.219850
rtibia 8.034300
rfoot -10.277050 -1.233180
rtoes -4.656385
lfemur -20.345650 1.105125 -6.020150
ltibia 12.252250
lfoot -7.112050 5.163100
ltoes -6.718600
13
root 7.563150 15.957900 -35.172298 6.848580 -2.396170 -4.298300
lowerback -2.872490 0.372059 0.554440
upperback -0.574445 0.431511 1.329480
thorax 1.006580 0.215878 1.089065
lowerneck -9.887200 -2.483905 -5.804400
upperneck 7.807450 -3.305280 7.631300
head 4.549960 -1.128365 3.163605
rclavicle -0.000000 -0.000000
rhumerus -19.967051 9.411400 -43.412849
rradius 30.762550
rwrist -17.483700
rhand -15.602200 -14.851350
rfingers 3.562510
rthumb -2.240240 -29.817650
lclavicle -0.000000 -0.000000
lhumerus -19.431049 -3.421405 44.541401
lradius 14.894000
lwrist 3.529580
lhand -4.043075 -11.160000
lfingers 3.562510
lthumb 8.912950 3.441485
rfemur 0.636090 3.045315 15.238450
rtibia 7.545700
rfoot -10.297350 -1.017900
rtoes -3.547585
lfemur -20.239750 0.841375 -5.713100
ltibia 11.624750
lfoot -7.099200 5.632700
ltoes -7.293050
14
root 7.575340 15.950700 -35.032902 6.853850 -2.748730 -4.461390
lowerback -2.942330 0.445563 0.639895
upperback -0.591260 0.521660 1.369710
thorax 1.026375 0.261247 1.090415
lowerneck -9.636550 -2.523370 -6.040350
upperneck 7.596150 -3.282330 7.584700
head 4.435120 -1.149450 3.183525
rclavicle -0.000000 0.000000
rhumerus -20.178101 9.380850 -43.507500
rradius 30.927700
rwrist -17.462299
rhand -15.588250 -14.514150
rfingers 3.562510
rthumb -2.226790 -29.480749
lclavicle -0.000000 0.000000
lhumerus -19.569950 -3.562885 44.701649
lradius 14.847850
lwrist 3.445855
lhand -3.758150 -11.320650
lfingers 3.562510
lthumb 9.187100 3.255435
rfemur 1.127710 2.916325 15.274950
rtibia 7.110500
rfoot -10.256650 -0.822765
rtoes -3.059355
lfemur -20.162149 0.368434 -5.220250
ltibia 10.988500
lfoot -7.031700 6.266350
ltoes -7.282950
